<?xml version="1.0" encoding="iso-8859-1"?>
<!-- Generator: Adobe Illustrator 19.0.0, SVG Export Plug-In . SVG Version: 6.00 Build 0)  -->
<svg version="1.1" id="Layer_1" xmlns="http://www.w3.org/2000/svg" xmlns:xlink="http://www.w3.org/1999/xlink" x="0px" y="0px"
	 viewBox="0 0 496.2 496.2" style="enable-background:new 0 0 496.2 496.2;" xml:space="preserve">
<path style="fill:#A3D5E0;" d="M248.1,0C111.1,0,0,111.1,0,248.1s111.1,248.1,248.1,248.1s248.1-111.1,248.1-248.1S385.1,0,248.1,0z
	"/>
<g>
	<path style="fill:#CE936B;" d="M287,282.1h-77.8c12.1,36.6,1,53.3,1,53.3l26.9,6.1h22l26.9-6.1C286,335.4,274.9,318.7,287,282.1z"
		/>
	<path style="fill:#CE936B;" d="M247.9,317l-37.7,18.4c0,0,16.8,28.1,37.6,28.1s38.2-28.1,38.2-28.1L247.9,317z"/>
</g>
<path style="fill:#DB9A6E;" d="M248.1,77.1c-44,0-79.8,21.2-79.8,113.6c0,31.3,5.6,40.3,14,59.2c18.4,41.6,50.3,64.2,65.8,64.2
	s47.3-22.6,65.8-64.2c8.4-18.9,14-27.9,14-59.2C327.9,98.3,292.1,77.1,248.1,77.1z"/>
<path style="fill:#B27C57;" d="M248.1,228.3c-9.8,0-17.8,8.7-17.8,15.1s8,8,17.8,8c9.8,0,17.8-1.6,17.8-8S257.9,228.3,248.1,228.3z"
	/>
<path style="fill:#DB9A6E;" d="M248.1,227.1c-8.8,0-16,7.8-16,13.5s7.2,7.2,16,7.2c8.8,0,16-1.5,16-7.2S256.9,227.1,248.1,227.1z"/>
<path style="fill:#602F0F;" d="M336.4,163.2c0-92.4-176.5-92.4-176.5,0h95.6l18-14.4l-5,14.4H336.4z"/>
<path style="fill:#472B14;" d="M305.7,189.3c-0.2-0.6-1.9-2.1-2.9-3c-12.2-11.5-25.7-8.7-33.6-5.8c-3.4,1.3-5.5,1.9-4.6,5.1
	c0.9,2.9,2.9,2.6,3.9,2.4c0.9-0.2,2.5-1,3.7-1.4c17.7-6.4,22.7-1.1,27.1,0.6C303.9,189,305.9,189.9,305.7,189.3z"/>
<path style="fill:#F2E9E4;" d="M282.5,197c-10.4,1.2-18.4,8-18.4,8s8.8,7.1,19.2,5.9c10.4-1.2,18.4-4.1,18.4-4.1
	S292.9,195.8,282.5,197z"/>
<circle style="fill:#443125;" cx="283.1" cy="203.9" r="6.7"/>
<path style="fill:#301609;" d="M283.3,208.7c-10.4,1.2-19.2-3.6-19.2-3.6s8.8,7.1,19.2,5.9c10.4-1.2,18.4-4.1,18.4-4.1
	S293.7,207.5,283.3,208.7z"/>
<path style="fill:#9E6E4D;" d="M282.5,197c-10.4,1.2-18.4,8-18.4,8s8-2.7,18.4-4s19.2,5.7,19.2,5.7S292.9,195.8,282.5,197z"/>
<path style="fill:#F2E9E4;" d="M213.3,197c-10.4-1.2-19.2,9.8-19.2,9.8s8,2.9,18.4,4.1c10.4,1.2,19.2-5.9,19.2-5.9
	S223.7,198.2,213.3,197z"/>
<circle style="fill:#443125;" cx="212.7" cy="203.9" r="6.7"/>
<path style="fill:#301609;" d="M212.5,208.7c-10.4-1.2-18.4-1.9-18.4-1.9s8,2.9,18.4,4.1c10.4,1.2,19.2-5.9,19.2-5.9
	S222.9,209.9,212.5,208.7z"/>
<path style="fill:#9E6E4D;" d="M213.3,197c-10.4-1.2-19.2,9.8-19.2,9.8s8.8-7,19.2-5.7s18.4,4,18.4,4S223.7,198.2,213.3,197z"/>
<path style="fill:#472B14;" d="M226.8,180.5c-7.9-2.9-21.3-5.7-33.6,5.8c-1,0.9-2.7,2.4-2.9,3s1.7-0.3,6.4-2.2
	c4.4-1.8,9.4-7,27.1-0.6c1.2,0.4,2.7,1.2,3.7,1.4c0.9,0.2,3,0.5,3.9-2.4C232.3,182.4,230.2,181.8,226.8,180.5z"/>
<path style="fill:#B27C57;" d="M258.5,262.3c-3-0.4-10.4,2.5-10.4,2.5s-7.6-2.9-10.6-2.5c-4.8,0.7-11.9,9-11.9,10.3
	c0,0,10.1,5.2,22.5,5.2s22.5-5.2,22.5-5.2S263.4,263,258.5,262.3z"/>
<path style="fill:#9E6E4D;" d="M254.2,268.9c-2-0.1-4.5,1.7-6.1,1.7c-1.9,0-4.8-1.8-7-1.6c-13.1,0.8-15.5,3.6-15.5,3.6
	s10.1,9.1,22.5,9.1s22.5-9.1,22.5-9.1S267.9,269.7,254.2,268.9z"/>
<path style="fill:#E2A379;" d="M285.9,335.4c0,0-8.9,17.3-38.1,17.3s-37.5-17.3-37.5-17.3s-7,54.7,37.9,54.7
	S285.9,335.4,285.9,335.4z"/>
<g>
	<path style="fill:#DB9A6E;" d="M326.5,178l-8.1,54.8c7.6,1.3,13,0.1,17.3-25C339.9,182.6,334.1,179.3,326.5,178z"/>
	<path style="fill:#DB9A6E;" d="M169.5,178c-7.6,1.3-13.4,4.6-9.1,29.7c4.3,25.2,9.6,26.3,17.3,25L169.5,178z"/>
</g>
<g>
	<path style="fill:#6B4634;" d="M394.8,382.8c-7.3-27.3-69.9-49.3-147.1-49.3s-139.1,22.1-146.4,49.3c-3.3,12.2-7,35.2-10.1,57.5
		c42.7,34.9,97.4,55.9,156.9,55.9s114.1-21,156.9-55.9C401.8,417.9,398.1,394.9,394.8,382.8z"/>
	<path style="fill:#6B4634;" d="M326.8,178.1c0,0-20.3,126.5-78.7,126.5s-75.5-126.5-75.5-126.5l-39.8,27.8
		c0,107.9,43.5,130,115.3,130s115.3-21.2,115.3-130L326.8,178.1z"/>
	<path style="fill:#6B4634;" d="M253.3,306.4c-0.8,0.6-1.2,0.9-1.2,0.9v58.1c0,0,10.3-0.6,25.3-5.1v-37.8L253.3,306.4z"/>
</g>
<path style="fill:#F4F2F2;" d="M248.1,72.6c-71.8,0-130,58.2-130,130c0,114.9,59.8,153.9,97.1,167c7.2,2.5,9.4,7.9,9.8,15v110.5
	c7.6,0.7,15.3,1.1,23.1,1.1c7.7,0,15.4-0.4,23-1.1V338.6l-7.2-4.9l-38-25.5c-11.3-8.9-24.7-19.6-30.7-25
	c-18.8-17.2-26.3-45-26.3-76.4c0-52.2,35.5-71.5,79.3-71.5s79.3,19.3,79.3,71.5c0,31.4-7.6,59.2-26.3,76.4
	c-10.1,9.3-41.9,33.9-48.2,38.7l22.2,14.9v34.8c36.5-11.1,103-47.8,103-169C378.1,130.8,319.9,72.6,248.1,72.6z"/>
<g>
</g>
<g>
</g>
<g>
</g>
<g>
</g>
<g>
</g>
<g>
</g>
<g>
</g>
<g>
</g>
<g>
</g>
<g>
</g>
<g>
</g>
<g>
</g>
<g>
</g>
<g>
</g>
<g>
</g>
</svg>
