<?xml version="1.0" standalone="no"?><!DOCTYPE svg PUBLIC "-//W3C//DTD SVG 1.1//EN" "http://www.w3.org/Graphics/SVG/1.1/DTD/svg11.dtd"><svg class="icon" height="512" viewBox="0 0 1024 1024" version="1.1" xmlns="http://www.w3.org/2000/svg"><path d="M582.5 761.5l51-51q9.5-9.5 9.5-22.5t-9.5-22.5l-153.5-153.5 153.5-153.5q9.5-9.5 9.5-22.5t-9.5-22.5l-51-51q-9.5-9.5-22.5-9.5t-22.5 9.5l-227 227q-9.5 9.5-9.5 22.5t9.5 22.5l227 227q9.5 9.5 22.5 9.5t22.5-9.5zm313.5-249.5q0 104.5-51.5 192.75t-139.75 139.75-192.75 51.5-192.75-51.5-139.75-139.75-51.5-192.75 51.5-192.75 139.75-139.75 192.75-51.5 192.75 51.5 139.75 139.75 51.5 192.75z" /></svg>