<?xml version="1.0" encoding="iso-8859-1"?>
<!-- Generator: Adobe Illustrator 19.0.0, SVG Export Plug-In . SVG Version: 6.00 Build 0)  -->
<svg version="1.1" id="Layer_1" xmlns="http://www.w3.org/2000/svg" xmlns:xlink="http://www.w3.org/1999/xlink" x="0px" y="0px"
	 viewBox="0 0 496.3 496.3" style="enable-background:new 0 0 496.3 496.3;" xml:space="preserve">
<path style="fill:#48A1AF;" d="M248.15,0c-137,0-248.1,111.1-248.1,248.1s111.1,248.1,248.1,248.1s248.1-111.1,248.1-248.1
	S385.15,0,248.15,0z"/>
<rect x="168.35" y="153.1" style="fill:#2B1407;" width="160.5" height="255"/>
<g>
	<path style="fill:#E2A379;" d="M287.05,282.1h-77.8c12.1,36.6,1,53.3,1,53.3l26.9,6.1h22l26.9-6.1
		C286.05,335.4,274.95,318.7,287.05,282.1z"/>
	<path style="fill:#E2A379;" d="M247.95,317l-37.7,18.4c0,0,16.8,28.1,37.6,28.1c20.8,0,38.2-28.1,38.2-28.1L247.95,317z"/>
</g>
<path style="fill:#2B1407;" d="M169.35,425.7c0,0,0.8-0.3,2.1-1c-0.1,0-0.1,0-0.1,0L169.35,425.7z M297.95,94.8l-107.5-5.7
	c-31.5,31.7-45.4,69.2-49.3,105.8c-1.9,17.5,18.2,41.8,20,58.2c1.9,17.2-17.5,22-19,49c-1.5,26.6,15.9,47.1,21.5,56
	c29.9,48.1,13.9,63,7.8,66.6c3.1-0.6,69.1-14.9,43.6-76.1c-2.6-6.2-9.2-26.5-15.8-37.7c-7.2-12.2-28.4-37-26-58.8
	C179.25,197,238.25,138.1,297.95,94.8z"/>
<path style="fill:#F4B382;" d="M248.15,92.6c-41.5,0-75.1,5.7-75.1,98.1c0,31.3,5.3,46.4,13.2,65.3c17.4,41.6,47.4,56.1,61.9,56.1
	c14.5,0,44.6-14.5,61.9-56.1c7.9-18.9,13.2-34,13.2-65.3C323.25,98.3,289.65,92.6,248.15,92.6z"/>
<path style="fill:#2B1407;" d="M248.15,77.1c-48.7,0-88.3,5.7-88.3,98.1c0,0,88.2-22.6,88.2-56.2
	C248.05,118.1,248.15,77.1,248.15,77.1L248.15,77.1z"/>
<path style="fill:#CE9163;" d="M236.25,244.7c-0.4-1.5-0.5-3-0.8-4.7c-0.7,0.8-1,1.7-1.2,2.6c-0.2,0.9-0.2,1.8,0,2.6
	s0.7,1.7,1.4,2.3c0.7,0.7,1.7,1.1,2.8,1.3C237.25,247.4,236.65,246.2,236.25,244.7z"/>
<g>
	<path style="fill:#AD7550;" d="M244.75,244.8c-0.3-0.6-0.8-1.1-1.4-1.4c-0.6-0.3-1.3-0.4-2.2-0.2c-0.8,0.1-1.8,0.6-2.6,1.3
		c1.5-0.1,2.7,0.1,3.7,0.6s1.9,1.2,3,1.9C245.25,246.1,245.05,245.4,244.75,244.8z"/>
	<path style="fill:#AD7550;" d="M255.45,243.2c-0.8-0.2-1.6,0-2.2,0.2c-0.6,0.3-1.1,0.8-1.4,1.4c-0.3,0.6-0.5,1.3-0.4,2.2
		c1.1-0.7,1.9-1.4,3-1.9c1-0.5,2.1-0.7,3.7-0.6C257.25,243.8,256.35,243.4,255.45,243.2z"/>
</g>
<g>
	<path style="fill:#CE9163;" d="M262.05,242.6c-0.2-0.9-0.6-1.8-1.2-2.6c-0.3,1.7-0.4,3.2-0.8,4.7s-1,2.7-2.2,4.1
		c1.1-0.2,2.1-0.7,2.8-1.3c0.7-0.7,1.1-1.5,1.4-2.3C262.25,244.3,262.25,243.4,262.05,242.6z"/>
	<path style="fill:#CE9163;" d="M256.15,213.7c0.1-2.7,0.3-5.3,0.7-7.9c0.4-2.6,1.1-5.2,2.1-7.8c-1.7,2.2-2.9,4.7-3.7,7.4
		c-0.8,2.7-1.1,5.5-1.2,8.2c-0.1,2.8,0.2,5.5,0.7,8.3c0.5,2.7,1.2,5.4,2.4,7.9C256.55,224.4,256.05,219,256.15,213.7z"/>
	<path style="fill:#CE9163;" d="M240.15,211.4c-0.1-0.9-0.2-1.9-0.5-2.8c-0.2-0.9-0.6-1.8-1.1-2.6c-0.1,1-0.1,1.9-0.1,2.8
		c0,0.9,0.1,1.8,0.1,2.7c0.1,0.9,0.1,1.8,0.3,2.7c0.1,0.9,0.3,1.8,0.5,2.8c0.4-0.9,0.5-1.8,0.6-2.8
		C240.25,213.3,240.25,212.4,240.15,211.4z"/>
</g>
<path style="fill:#472B14;" d="M264.75,204.8c0,0.5,2.3,7.6,19.4,5.3c11.1-1.5,11.8-12.2,11.8-12.2
	C275.65,186.6,264.75,204.8,264.75,204.8z"/>
<path style="fill:#F7F0EB;" d="M264.75,204.8c0.1,1.1,1.1,1.5,2,1.8c24.5,8.5,28.2-7.4,28.2-7.4
	C275.15,191.7,264.75,204.8,264.75,204.8z"/>
<ellipse style="fill:#3A1A05;" cx="281.75" cy="201.5" rx="6.1" ry="6"/>
<g>
	<path style="fill:#2B1407;" d="M295.35,196.1c-23.5-11.7-30.6,8.7-30.6,8.7s10-12.5,28.9-6.1c0.4,0,0.9,0.2,1.3,0.4
		c4.8,2.6,5.3-1.4,5.3-1.4C298.25,197.7,295.35,196.1,295.35,196.1z"/>
	<path style="fill:#2B1407;" d="M305.75,189.3c-0.2-0.6-1.9-2.1-2.9-3c-12.2-11.5-25.7-8.7-33.6-5.8c-3.4,1.3-5.5,1.9-4.6,5.1
		c0.9,2.9,2.9,2.6,3.9,2.4c0.9-0.2,2.5-1,3.7-1.4c17.7-6.4,22.7-1.1,27.1,0.6C303.95,189,305.95,189.9,305.75,189.3z"/>
</g>
<path style="fill:#472B14;" d="M200.15,197.9c0,0,0.7,10.7,11.8,12.2c17.1,2.3,19.4-4.8,19.4-5.3
	C231.35,204.8,220.45,186.6,200.15,197.9z"/>
<path style="fill:#F7F0EB;" d="M201.15,199.2c0,0,3.7,15.9,28.2,7.4c0.9-0.3,1.9-0.8,2-1.8C231.35,204.8,220.85,191.7,201.15,199.2z
	"/>
<ellipse style="fill:#3A1A05;" cx="214.35" cy="201.5" rx="6.1" ry="6"/>
<g>
	<path style="fill:#2B1407;" d="M200.75,196.1c0,0-3,1.6-4.8,1.6c0,0,0.4,4,5.3,1.4c0.4-0.2,0.8-0.3,1.3-0.4
		c18.9-6.4,28.9,6.1,28.9,6.1S224.25,184.3,200.75,196.1z"/>
	<path style="fill:#2B1407;" d="M226.85,180.5c-7.9-2.9-21.3-5.7-33.6,5.8c-1,0.9-2.7,2.4-2.9,3s1.7-0.3,6.4-2.2
		c4.4-1.8,9.4-7,27.1-0.6c1.2,0.4,2.7,1.2,3.7,1.4c0.9,0.2,3,0.5,3.9-2.4C232.35,182.4,230.25,181.8,226.85,180.5z"/>
</g>
<path style="fill:#E24444;" d="M258.55,257.8c-3-0.4-10.4,2.5-10.4,2.5s-7.6-2.9-10.6-2.5c-4.8,0.7-11.9,9-11.9,10.3
	c0,0,10.1,5.2,22.5,5.2c12.4,0,22.5-5.2,22.5-5.2S263.45,258.5,258.55,257.8z"/>
<path style="fill:#D33D3D;" d="M254.25,264.4c-2-0.1-4.5,1.7-6.1,1.7c-1.9,0-4.8-1.8-7-1.6c-13.1,0.8-15.5,3.6-15.5,3.6
	s10.1,9.1,22.5,9.1c12.4,0,22.5-9.1,22.5-9.1S267.95,265.2,254.25,264.4z"/>
<path style="fill:#E2A379;" d="M285.95,335.4c0,0-8.9,17.3-38.1,17.3s-37.5-17.3-37.5-17.3s-7,54.7,37.9,54.7
	S285.95,335.4,285.95,335.4z"/>
<g>
	<path style="fill:#F4B382;" d="M171.55,178c-7.6,1.3-13.4,4.6-9.1,29.7c4.3,25.2,9.6,26.3,17.3,25L171.55,178z"/>
	<path style="fill:#F4B382;" d="M322.85,178l-8.1,54.8c7.6,1.3,13,0.1,17.3-25C336.25,182.6,330.45,179.3,322.85,178z"/>
</g>
<path style="fill:#2B1407;" d="M174.85,181.4c-1-6.6,0.1-11.8,0.1-11.8l-15,5.6c0,0,9.3,1.2,12.6,11.9
	C172.45,187.1,176.15,189.8,174.85,181.4z"/>
<path style="fill:#E2A379;" d="M394.85,382.8c-7.3-27.3-69.9-49.3-147.1-49.3s-139.1,22.1-146.4,49.3c-3.3,12.2-7,35.2-10.1,57.5
	c42.7,34.9,97.4,55.9,156.9,55.9s114.1-21,156.9-55.9C401.85,417.9,398.15,394.9,394.85,382.8z"/>
<polygon style="fill:#CC936D;" points="248.15,418.9 242.65,448.6 253.65,448.6 "/>
<g>
	<polygon style="fill:#C11111;" points="209.85,326.1 190.45,336.6 244.15,402.1 253.05,389.4 	"/>
	<polygon style="fill:#C11111;" points="253.05,389.4 244.15,402.1 248.15,431.9 261.15,420.1 	"/>
	<polygon style="fill:#C11111;" points="286.25,326.1 243.05,389.4 251.95,402.1 305.65,336.6 	"/>
	<polygon style="fill:#C11111;" points="243.05,389.4 234.95,420.1 247.95,431.9 251.95,402.1 	"/>
</g>
<g>
	<path style="fill:#FFFFFF;" d="M101.45,382.8c-3.3,12.2,73.6,33.7,73.6,33.7l8.7-77.5C138.45,347.1,106.55,363.6,101.45,382.8z"/>
	<path style="fill:#FFFFFF;" d="M248.15,496.2V447c0,0-37.8-16.7-61-25.7s-85.7-38.6-85.7-38.6c-2.4,8.8-5,23.4-7.4,39.2
		c-0.9,6,50.3,24.3,50.3,24.3l-5.1,24.8C172.05,487.1,209.05,496.2,248.15,496.2z"/>
	<path style="fill:#FFFFFF;" d="M394.95,382.8c-5.1-19.1-37.1-35.7-82.3-43.9l8.7,77.5C321.35,416.4,398.15,394.9,394.95,382.8z"/>
</g>
<g>
	<path style="fill:#AAACAD;" d="M312.65,339l0.9,8.4c5.3-1.5,10.6-3.1,15.7-4.9C323.95,341.2,318.45,340.1,312.65,339z"/>
	<path style="fill:#AAACAD;" d="M181.75,339.3c-0.6,0.1-1.2,0.2-1.8,0.3c-1,0.2-2,0.4-2.9,0.6c-0.5,0.1-1,0.2-1.4,0.3
		c-1.4,0.3-2.8,0.6-4.2,0.9c-0.4,0.1-0.7,0.2-1.1,0.3c-1,0.2-2.1,0.5-3.1,0.7c-0.1,0-0.2,0.1-0.3,0.1c5.2,1.8,10.5,3.5,15.9,4.9
		l1-8.5C183.05,339,182.35,339.1,181.75,339.3z"/>
	<path style="fill:#AAACAD;" d="M356.65,351.2c-13,6.3-26.7,11.6-40.9,15.6l2,17.9c20.1-5.9,39.1-14.2,56.7-24.7
		C369.35,356.9,363.35,354,356.65,351.2z"/>
</g>
<path style="fill:#FFFFFF;" d="M402.35,422c-2.5-15.9-5.1-30.4-7.4-39.2c0,0-62.4,29.6-85.7,38.6s-61,25.7-61,25.7v49.2
	c39.1,0,76.1-9,109-25.2l-5.1-24.8C352.05,446.2,403.25,428,402.35,422z"/>
<path style="fill:#AAACAD;" d="M394.85,382.8c-1.1-4.1-3.4-8-6.8-11.8c-20.7,14.2-43.6,25.2-68.1,32.7l1.4,12.8
	c-4.6,2-8.8,3.7-12.1,5c-6.9,2.7-15.2,6-23.3,9.4c40.6-6.2,77.9-22.3,109.5-45.6C395.25,384.3,395.05,383.5,394.85,382.8z"/>
<path style="fill:#2B1407;" d="M335.55,253.1c1.8-16.4,21.9-40.7,20-58.2c-3.9-36.6-12.8-75.1-44.2-102.8c-8.2-7.2-18-15-63.3-15
	c0,0-33.1,18.8-26,44c4.3,15.3,20.7,15.3,34.5,26.6c37.6,30.6,63.2,70.5,67,104.4c2.4,21.8-18.8,46.5-26,58.8
	c-6.7,11.2-13.2,31.5-15.8,37.7c-26.2,62.7,43.5,76.7,43.5,76.7l2.1,0.4c0,0-30.1-9.9,5.7-67.6c5.6-8.9,23-29.4,21.5-56
	C353.05,275.1,333.65,270.3,335.55,253.1z"/>
<g>
	<path style="fill:#AAACAD;" d="M352.05,446.2l-2.7-12.6c-0.1,0-0.3,0.1-0.4,0.2c-30.8,13.7-64.9,21.4-100.9,21.4
		c-36.1,0-70.4-7.7-101.3-21.6l-2.5,12.6l-1.3,6.6c31.9,15,67.6,23.4,105.2,23.4s73.3-8.4,105.3-23.4L352.05,446.2z"/>
	<path style="fill:#AAACAD;" d="M187.15,421.4c-3.3-1.3-7.5-3-12.1-5l1.4-12.7c-24.6-7.4-47.5-18.5-68.2-32.7
		c-0.1,0.1-0.1,0.1-0.2,0.2c-1.1,1.2-2,2.4-2.8,3.6c-0.1,0.2-0.3,0.4-0.4,0.6c-0.2,0.3-0.4,0.6-0.5,0.9c-0.2,0.3-0.3,0.5-0.4,0.8
		s-0.3,0.5-0.4,0.8c-0.2,0.3-0.3,0.6-0.4,0.9c-0.1,0.2-0.2,0.5-0.3,0.7c-0.2,0.3-0.3,0.7-0.4,1c-0.1,0.2-0.2,0.4-0.2,0.6
		c-0.2,0.6-0.4,1.1-0.5,1.7c-0.2,0.6-0.3,1.3-0.5,1.9c0,0.2-0.1,0.3-0.1,0.5c31.6,23.4,69,39.4,109.6,45.7
		C202.25,427.4,194.05,424,187.15,421.4z"/>
	<path style="fill:#AAACAD;" d="M139.55,351.2C139.55,351.2,139.45,351.2,139.55,351.2c-0.5,0.2-1,0.4-1.5,0.6s-0.9,0.4-1.3,0.6
		c-0.5,0.2-1,0.4-1.4,0.6s-0.9,0.4-1.3,0.6c-0.5,0.2-0.9,0.4-1.4,0.6c-0.4,0.2-0.8,0.4-1.2,0.6c-0.5,0.3-1.1,0.5-1.6,0.8
		c-0.7,0.3-1.3,0.7-1.9,1c-0.4,0.2-0.8,0.5-1.3,0.7c-0.4,0.2-0.7,0.4-1.1,0.6c-0.4,0.2-0.8,0.5-1.2,0.7c-0.3,0.2-0.7,0.4-1,0.6
		c-0.4,0.2-0.8,0.5-1.2,0.7c-0.1,0-0.2,0.1-0.2,0.1c17.7,10.5,36.7,18.8,56.8,24.7l2-17.9C166.35,362.8,152.55,357.6,139.55,351.2z"
		/>
</g>
<g>
	<path style="fill:#7A7C7C;" d="M95.55,412.1c-0.5,3.2-2,12.5-2.5,15.9l49.4,26.9l3.5-16.9L95.55,412.1z"/>
	<path style="fill:#7A7C7C;" d="M400.85,412.1l-50.3,25.9l3.5,16.9l49.3-26.9C402.75,424.7,401.35,415.3,400.85,412.1z"/>
</g>
<g>
	<path style="fill:#3F1E0B;" d="M357.15,106.1c-11.1-10.6-34-30-78-42.7s-85.5-14.5-92.1-14.1c-29.7,2.1-52.6,21.5-51.1,43.4
		s26.9,38,56.7,35.9c6.2-0.4,120.4,35.4,129.7,40.2c26.6,13.5,55,11,63.4-5.6C394.25,146.7,378.75,126.7,357.15,106.1z"/>
	<path style="fill:#3F1E0B;" d="M306.15,57.6c-1.4-2.4-4.4-3.2-6.8-1.9c-10.1,5.8-18.5,16.9-18.9,17.3c-1.7,2.2-1.2,5.3,1,7
		c0.9,0.7,2,1,3,1c1.5,0,3-0.7,4-2c0.1-0.1,7.5-9.9,15.8-14.7C306.65,63.1,307.55,60,306.15,57.6z"/>
</g>
<g>
</g>
<g>
</g>
<g>
</g>
<g>
</g>
<g>
</g>
<g>
</g>
<g>
</g>
<g>
</g>
<g>
</g>
<g>
</g>
<g>
</g>
<g>
</g>
<g>
</g>
<g>
</g>
<g>
</g>
</svg>
